
<svg width="2948" height="1280">
      <title>Bid af Postop Observationsskema</title>
        
        <rect width="704" height="32" stroke-width="0" style="fill:rgb(205,205,255)"></rect>
        
               <!-- Så de vertikale blå streger -->

                     
          <line x1="208" y1="670" x2="208" y2="1024" style="stroke:rgb(205,205,255);stroke-width:2"></line>
                     
          <line x1="224" y1="670" x2="224" y2="1024" style="stroke:rgb(205,205,255);stroke-width:2"></line>
                     
          <line x1="240" y1="670" x2="240" y2="1024" style="stroke:rgb(205,205,255);stroke-width:2"></line>
                     
          <line x1="256" y1="670" x2="256" y2="1024" style="stroke:rgb(205,205,255);stroke-width:2"></line>
                     
          <line x1="272" y1="670" x2="272" y2="1024" style="stroke:rgb(205,205,255);stroke-width:2"></line>
                     
          <line x1="288" y1="670" x2="288" y2="1024" style="stroke:rgb(205,205,255);stroke-width:2"></line>
                     
          <line x1="304" y1="670" x2="304" y2="1024" style="stroke:rgb(205,205,255);stroke-width:2"></line>
                     
          <line x1="320" y1="670" x2="320" y2="1024" style="stroke:rgb(205,205,255);stroke-width:2"></line>
                     
          <line x1="336" y1="670" x2="336" y2="1024" style="stroke:rgb(205,205,255);stroke-width:2"></line>
                     
          <line x1="352" y1="670" x2="352" y2="1024" style="stroke:rgb(205,205,255);stroke-width:2"></line>
                     
          <line x1="368" y1="670" x2="368" y2="1024" style="stroke:rgb(205,205,255);stroke-width:2"></line>
                     
          <line x1="384" y1="670" x2="384" y2="1024" style="stroke:rgb(205,205,255);stroke-width:2"></line>
                     
          <line x1="400" y1="670" x2="400" y2="1024" style="stroke:rgb(205,205,255);stroke-width:2"></line>
                     
          <line x1="416" y1="670" x2="416" y2="1024" style="stroke:rgb(205,205,255);stroke-width:2"></line>
                     
          <line x1="432" y1="670" x2="432" y2="1024" style="stroke:rgb(205,205,255);stroke-width:2"></line>
                     
          <line x1="448" y1="670" x2="448" y2="1024" style="stroke:rgb(205,205,255);stroke-width:2"></line>
                     
          <line x1="464" y1="670" x2="464" y2="1024" style="stroke:rgb(205,205,255);stroke-width:2"></line>
                     
          <line x1="480" y1="670" x2="480" y2="1024" style="stroke:rgb(205,205,255);stroke-width:2"></line>
                     
          <line x1="496" y1="670" x2="496" y2="1024" style="stroke:rgb(205,205,255);stroke-width:2"></line>
                     
          <line x1="512" y1="670" x2="512" y2="1024" style="stroke:rgb(205,205,255);stroke-width:2"></line>
                     
          <line x1="528" y1="670" x2="528" y2="1024" style="stroke:rgb(205,205,255);stroke-width:2"></line>
                     
          <line x1="544" y1="670" x2="544" y2="1024" style="stroke:rgb(205,205,255);stroke-width:2"></line>
                     
          <line x1="560" y1="670" x2="560" y2="1024" style="stroke:rgb(205,205,255);stroke-width:2"></line>
                     
          <line x1="576" y1="670" x2="576" y2="1024" style="stroke:rgb(205,205,255);stroke-width:2"></line>
                     
          <line x1="592" y1="670" x2="592" y2="1024" style="stroke:rgb(205,205,255);stroke-width:2"></line>
                     
          <line x1="608" y1="670" x2="608" y2="1024" style="stroke:rgb(205,205,255);stroke-width:2"></line>
                     
          <line x1="624" y1="670" x2="624" y2="1024" style="stroke:rgb(205,205,255);stroke-width:2"></line>
                     
          <line x1="640" y1="670" x2="640" y2="1024" style="stroke:rgb(205,205,255);stroke-width:2"></line>
                     
          <line x1="656" y1="670" x2="656" y2="1024" style="stroke:rgb(205,205,255);stroke-width:2"></line>
                     
          <line x1="672" y1="670" x2="672" y2="1024" style="stroke:rgb(205,205,255);stroke-width:2"></line>
                     
          <line x1="688" y1="670" x2="688" y2="1024" style="stroke:rgb(205,205,255);stroke-width:2"></line>
         
        
          <!-- Derefter de horizontale blå streger -->

                     
          <line x1="192" y1="688" x2="704" y2="688" style="stroke:rgb(205,205,255);stroke-width:2"></line>
                     
          <line x1="192" y1="704" x2="704" y2="704" style="stroke:rgb(205,205,255);stroke-width:2"></line>
                     
          <line x1="192" y1="720" x2="704" y2="720" style="stroke:rgb(205,205,255);stroke-width:2"></line>
                     
          <line x1="192" y1="736" x2="704" y2="736" style="stroke:rgb(205,205,255);stroke-width:2"></line>
                     
          <line x1="192" y1="752" x2="704" y2="752" style="stroke:rgb(205,205,255);stroke-width:2"></line>
                     
          <line x1="192" y1="768" x2="704" y2="768" style="stroke:rgb(205,205,255);stroke-width:2"></line>
                     
          <line x1="192" y1="784" x2="704" y2="784" style="stroke:rgb(205,205,255);stroke-width:2"></line>
                     
          <line x1="192" y1="800" x2="704" y2="800" style="stroke:rgb(205,205,255);stroke-width:2"></line>
                     
          <line x1="192" y1="816" x2="704" y2="816" style="stroke:rgb(205,205,255);stroke-width:2"></line>
                     
          <line x1="192" y1="832" x2="704" y2="832" style="stroke:rgb(205,205,255);stroke-width:2"></line>
                     
          <line x1="192" y1="848" x2="704" y2="848" style="stroke:rgb(205,205,255);stroke-width:2"></line>
                     
          <line x1="192" y1="864" x2="704" y2="864" style="stroke:rgb(205,205,255);stroke-width:2"></line>
                     
          <line x1="192" y1="880" x2="704" y2="880" style="stroke:rgb(205,205,255);stroke-width:2"></line>
                     
          <line x1="192" y1="896" x2="704" y2="896" style="stroke:rgb(205,205,255);stroke-width:2"></line>
                     
          <line x1="192" y1="912" x2="704" y2="912" style="stroke:rgb(205,205,255);stroke-width:2"></line>
                     
          <line x1="192" y1="928" x2="704" y2="928" style="stroke:rgb(205,205,255);stroke-width:2"></line>
                     
          <line x1="192" y1="944" x2="704" y2="944" style="stroke:rgb(205,205,255);stroke-width:2"></line>
                     
          <line x1="192" y1="960" x2="704" y2="960" style="stroke:rgb(205,205,255);stroke-width:2"></line>
                     
          <line x1="192" y1="976" x2="704" y2="976" style="stroke:rgb(205,205,255);stroke-width:2"></line>
                     
          <line x1="192" y1="992" x2="704" y2="992" style="stroke:rgb(205,205,255);stroke-width:2"></line>
                     
          <line x1="192" y1="1008" x2="704" y2="1008" style="stroke:rgb(205,205,255);stroke-width:2"></line>
          
   
        
          <!-- Så definerer vi vores boks med rammer -->
        
        <rect width="704" height="1024" stroke-width="4" style="fill:none;stroke:black;stroke-width:5;fill-opacity:0.1;stroke-opacity:0.9"> </rect>

          <!-- Så kommer de 8 vertikale streger -->

                     
          <line x1="192" y1="0" x2="192" y2="1024" style="stroke:black;stroke-width:2"></line>
                     
          <line x1="256" y1="0" x2="256" y2="1024" style="stroke:black;stroke-width:2"></line>
                     
          <line x1="320" y1="0" x2="320" y2="1024" style="stroke:black;stroke-width:2"></line>
                     
          <line x1="384" y1="0" x2="384" y2="1024" style="stroke:black;stroke-width:2"></line>
                     
          <line x1="448" y1="0" x2="448" y2="1024" style="stroke:black;stroke-width:2"></line>
                     
          <line x1="512" y1="0" x2="512" y2="1024" style="stroke:black;stroke-width:2"></line>
                     
          <line x1="576" y1="0" x2="576" y2="1024" style="stroke:black;stroke-width:2"></line>
                     
          <line x1="640" y1="0" x2="640" y2="1024" style="stroke:black;stroke-width:2"></line>
          

          <!-- Derefter de horizontale -->

                     
          <line x1="0" y1="32" x2="704" y2="32" style="stroke:black;stroke-width:2"></line>
                     
          <line x1="0" y1="64" x2="704" y2="64" style="stroke:black;stroke-width:2"></line>
                     
          <line x1="0" y1="96" x2="704" y2="96" style="stroke:black;stroke-width:2"></line>
                     
          <line x1="0" y1="128" x2="704" y2="128" style="stroke:black;stroke-width:2"></line>
                     
          <line x1="0" y1="160" x2="704" y2="160" style="stroke:black;stroke-width:2"></line>
                     
          <line x1="0" y1="192" x2="704" y2="192" style="stroke:black;stroke-width:2"></line>
                     
          <line x1="0" y1="224" x2="704" y2="224" style="stroke:black;stroke-width:2"></line>
                     
          <line x1="0" y1="256" x2="704" y2="256" style="stroke:black;stroke-width:2"></line>
                     
          <line x1="0" y1="288" x2="704" y2="288" style="stroke:black;stroke-width:2"></line>
                     
          <line x1="0" y1="320" x2="704" y2="320" style="stroke:black;stroke-width:2"></line>
                     
          <line x1="0" y1="352" x2="704" y2="352" style="stroke:black;stroke-width:2"></line>
                     
          <line x1="0" y1="384" x2="704" y2="384" style="stroke:black;stroke-width:2"></line>
                     
          <line x1="0" y1="416" x2="704" y2="416" style="stroke:black;stroke-width:2"></line>
                     
          <line x1="0" y1="448" x2="704" y2="448" style="stroke:black;stroke-width:2"></line>
                     
          <line x1="0" y1="480" x2="704" y2="480" style="stroke:black;stroke-width:2"></line>
                     
          <line x1="0" y1="512" x2="704" y2="512" style="stroke:black;stroke-width:2"></line>
                     
          <line x1="0" y1="544" x2="704" y2="544" style="stroke:black;stroke-width:2"></line>
                     
          <line x1="0" y1="576" x2="704" y2="576" style="stroke:black;stroke-width:2"></line>
                     
          <line x1="0" y1="608" x2="704" y2="608" style="stroke:black;stroke-width:2"></line>
                     
          <line x1="0" y1="640" x2="704" y2="640" style="stroke:black;stroke-width:2"></line>
                     
          <line x1="0" y1="672" x2="704" y2="672" style="stroke:black;stroke-width:2"></line>
          

        
          <!-- Endelig kommer teksten --->

                  
          <text x="6" ,="" y="26" fill="black">Klokken</text>
                  
          <text x="6" ,="" y="58" fill="black">Morfin (mg/iv)</text>
                  
          <text x="6" ,="" y="90" fill="black">Toradol mg/iv</text>
                  
          <text x="6" ,="" y="122" fill="black">Oxynorm mg/iv</text>
                  
          <text x="6" ,="" y="154" fill="black">Pethidin mg/iv</text>
                  
          <text x="6" ,="" y="186" fill="black">DHB mg/ml</text>
                  
          <text x="6" ,="" y="218" fill="black">Ondansetron mg/iv</text>
                  
          <text x="6" ,="" y="250" fill="black">Caps Oxynorm mg</text>
                  
          <text x="6" ,="" y="282" fill="black">T Paracetamol</text>
                  
          <text x="6" ,="" y="314" fill="black"></text>
                  
          <text x="6" ,="" y="346" fill="black"></text>
                  
          <text x="6" ,="" y="378" fill="black">VAS Score</text>
                  
          <text x="6" ,="" y="410" fill="black">EPI ml/t</text>
                  
          <text x="6" ,="" y="442" fill="black">PCA</text>
                  
          <text x="6" ,="" y="474" fill="black">Timediurese</text>
                  
          <text x="6" ,="" y="506" fill="black">Oxygen</text>
                  
          <text x="6" ,="" y="538" fill="black">Saturation</text>
                  
          <text x="6" ,="" y="570" fill="black">Kvalme</text>
                  
          <text x="6" ,="" y="602" fill="black">Forbinding</text>
                  
          <text x="6" ,="" y="634" fill="black">Blødning</text>
             
    </svg>